<?xml version="1.0" encoding="iso-8859-1"?>
<!-- Generator: Adobe Illustrator 19.0.0, SVG Export Plug-In . SVG Version: 6.00 Build 0)  -->
<svg version="1.1" id="Capa_1" xmlns="http://www.w3.org/2000/svg" xmlns:xlink="http://www.w3.org/1999/xlink" x="0px" y="0px"
	 viewBox="0 0 512 512" style="enable-background:new 0 0 512 512;" xml:space="preserve">
<g>
	<g>
		<path d="M511.993,374.865c-0.002-0.215-0.021-0.431-0.033-0.647c-0.016-0.316-0.031-0.631-0.067-0.942
			c-0.005-0.045-0.004-0.091-0.01-0.136l-26.715-213.722C482.359,136.946,463.163,120,440.517,120H422V90h45c8.284,0,15-6.716,15-15
			V15c0-8.284-6.716-15-15-15H287c-8.284,0-15,6.716-15,15v60c0,8.284,6.716,15,15,15h45v30h-90V45c0-8.284-6.716-15-15-15h-90
			c-8.284,0-15,6.716-15,15v75H71.483c-22.646,0-41.843,16.946-44.652,39.418L0.116,373.14c-0.006,0.045-0.004,0.091-0.01,0.136
			c-0.036,0.311-0.051,0.626-0.067,0.942c-0.011,0.216-0.031,0.432-0.033,0.647C0.006,374.91,0,374.954,0,375v92
			c0,24.813,20.187,45,45,45h422c24.813,0,45-20.187,45-45v-92C512,374.954,511.994,374.91,511.993,374.865z M302,60V30h150v30
			C437.279,60,316.904,60,302,60z M392,90v30h-30V90H392z M152,60h60v120h-60V60z M56.599,163.14
			c0.937-7.491,7.336-13.14,14.885-13.14H122v30h-15c-8.284,0-15,6.716-15,15s6.716,15,15,15c6.078,0,143.708,0,150,0
			c8.284,0,15-6.716,15-15s-6.716-15-15-15h-15v-30h105h60h33.517c7.549,0,13.948,5.649,14.885,13.139L480.008,360H31.992
			L56.599,163.14z M482,467c0,8.271-6.729,15-15,15H45c-8.271,0-15-6.729-15-15v-77h452V467z"/>
	</g>
</g>
<g>
	<g>
		<path d="M407,300h-90c-8.284,0-15,6.716-15,15s6.716,15,15,15h90c8.284,0,15-6.716,15-15S415.284,300,407,300z"/>
	</g>
</g>
<g>
	<g>
		<path d="M146.874,300H105c-8.284,0-15,6.716-15,15s6.716,15,15,15h41.874c8.284,0,15-6.716,15-15S155.158,300,146.874,300z"/>
	</g>
</g>
<g>
	<g>
		<path d="M146.874,240H105c-8.284,0-15,6.716-15,15s6.716,15,15,15h41.874c8.284,0,15-6.716,15-15S155.158,240,146.874,240z"/>
	</g>
</g>
<g>
	<g>
		<path d="M257,240h-43.75c-8.284,0-15,6.716-15,15s6.716,15,15,15H257c8.284,0,15-6.716,15-15S265.284,240,257,240z"/>
	</g>
</g>
<g>
	<g>
		<path d="M257,300h-41.719c-8.284,0-15,6.716-15,15s6.716,15,15,15H257c8.284,0,15-6.716,15-15S265.284,300,257,300z"/>
	</g>
</g>
<g>
	<g>
		<path d="M407,180h-90c-8.284,0-15,6.716-15,15v60c0,8.284,6.716,15,15,15h90c8.284,0,15-6.716,15-15v-60
			C422,186.716,415.284,180,407,180z M392,240h-60v-30h60V240z"/>
	</g>
</g>
<g>
	<g>
		<path d="M287,420h-60c-8.284,0-15,6.716-15,15s6.716,15,15,15h60c8.284,0,15-6.716,15-15S295.284,420,287,420z"/>
	</g>
</g>
<g>
</g>
<g>
</g>
<g>
</g>
<g>
</g>
<g>
</g>
<g>
</g>
<g>
</g>
<g>
</g>
<g>
</g>
<g>
</g>
<g>
</g>
<g>
</g>
<g>
</g>
<g>
</g>
<g>
</g>
</svg>
