<?xml version="1.0" encoding="iso-8859-1"?>
<!-- Generator: Adobe Illustrator 19.0.0, SVG Export Plug-In . SVG Version: 6.00 Build 0)  -->
<svg version="1.1" id="Capa_1" xmlns="http://www.w3.org/2000/svg" xmlns:xlink="http://www.w3.org/1999/xlink" x="0px" y="0px"
	 viewBox="0 0 409.6 409.6" style="enable-background:new 0 0 409.6 409.6;" xml:space="preserve">
<rect x="259.789" y="59.029" style="fill:#64798A;" width="48.799" height="45.327"/>
<rect x="259.789" y="59.029" style="fill:#3A556A;" width="48.799" height="18.519"/>
<path style="fill:#FFFFFF;" d="M340.773,10.06H227.608c-1.133,0-2.053,0.919-2.053,2.053v57.1c0,1.134,0.92,2.053,2.053,2.053
	h113.165c1.135,0,2.053-0.919,2.053-2.053v-57.1C342.826,10.979,341.908,10.06,340.773,10.06z"/>
<rect x="232.95" y="17.445" style="fill:#27A2DB;" width="102.502" height="46.438"/>
<rect x="232.939" y="58.118" style="fill:#2D93BA;" width="102.502" height="5.76"/>
<rect y="311.41" style="fill:#DC8744;" width="409.6" height="88.131"/>
<polygon style="fill:#FCD462;" points="355.043,170.135 54.557,170.135 0,311.411 409.6,311.411 "/>
<g>
	<polygon style="fill:#EBF0F3;" points="85.223,208.791 60.803,208.791 66.381,189.491 89.852,189.491 	"/>
	<polygon style="fill:#EBF0F3;" points="138.213,208.791 113.793,208.791 117.33,189.491 140.801,189.491 	"/>
	<polygon style="fill:#EBF0F3;" points="190.744,208.791 166.324,208.791 167.82,189.491 191.291,189.491 	"/>
</g>
<polygon style="fill:#44C4A1;" points="243.276,208.791 218.856,208.791 218.309,189.491 241.78,189.491 "/>
<polygon style="fill:#DC8744;" points="295.807,208.791 271.387,208.791 268.799,189.491 292.27,189.491 "/>
<polygon style="fill:#E56353;" points="348.339,208.791 323.919,208.791 319.289,189.491 342.76,189.491 "/>
<g>
	<polygon style="fill:#EBF0F3;" points="75.22,250.492 48.749,250.492 55.283,227.889 80.642,227.889 	"/>
	<polygon style="fill:#EBF0F3;" points="132.621,250.492 106.151,250.492 110.293,227.889 135.652,227.889 	"/>
	<polygon style="fill:#EBF0F3;" points="189.564,250.492 163.093,250.492 164.845,227.889 190.204,227.889 	"/>
	<polygon style="fill:#EBF0F3;" points="246.507,250.492 220.036,250.492 219.396,227.889 244.755,227.889 	"/>
	<polygon style="fill:#EBF0F3;" points="303.449,250.492 276.979,250.492 273.948,227.889 299.307,227.889 	"/>
</g>
<polygon style="fill:#27A2DB;" points="360.392,250.492 333.922,250.492 328.5,227.889 353.859,227.889 "/>
<g>
	<polygon style="fill:#EBF0F3;" points="63.383,299.839 34.486,299.839 42.242,273.005 69.82,273.005 	"/>
	<polygon style="fill:#EBF0F3;" points="126.005,299.839 97.107,299.839 102.025,273.005 129.603,273.005 	"/>
	<polygon style="fill:#EBF0F3;" points="188.167,299.839 159.27,299.839 161.349,273.005 188.927,273.005 	"/>
	<polygon style="fill:#EBF0F3;" points="250.33,299.839 221.433,299.839 220.673,273.005 248.251,273.005 	"/>
	<polygon style="fill:#EBF0F3;" points="312.493,299.839 283.595,299.839 279.997,273.005 307.575,273.005 	"/>
</g>
<polygon style="fill:#44C4A1;" points="378.059,299.839 349.162,299.839 342.725,273.005 370.303,273.005 "/>
<rect x="54.559" y="99.923" style="fill:#F6C358;" width="300.257" height="70.211"/>
<path style="fill:#DC8744;" d="M212.611,127.398H74.095c-2.108,0-3.816,1.709-3.816,3.816s1.708,3.816,3.816,3.816h138.516
	c2.107,0,3.816-1.708,3.816-3.816S214.717,127.398,212.611,127.398z"/>
<circle style="fill:#FCD462;" cx="204.8" cy="355.483" r="20.296"/>
<path style="fill:#F6C358;" d="M216.071,344.247c1.628,2.497,2.594,5.466,2.594,8.669c0,8.789-7.124,15.913-15.913,15.913
	c-4.405,0-8.39-1.792-11.271-4.684c2.84,4.354,7.734,7.244,13.319,7.244c8.789,0,15.913-7.125,15.913-15.913
	C220.713,351.093,218.938,347.125,216.071,344.247z"/>
<rect x="225.536" y="108.135" style="fill:#FFFFFF;" width="117.268" height="53.755"/>
<rect x="232.945" y="115.554" style="fill:#44C4A1;" width="102.502" height="38.989"/>
<rect x="232.919" y="148.763" style="fill:#3EA69B;" width="102.502" height="5.76"/>
<polygon style="fill:#FFFFFF;" points="204.937,21.159 196.139,12.361 187.34,21.159 178.544,12.361 169.746,21.159 160.948,12.361
	152.15,21.159 143.353,12.361 134.555,21.159 125.757,12.361 116.959,21.159 108.162,12.361 99.364,21.159 90.566,12.361
	81.768,21.159 76.05,15.44 76.05,131.213 210.655,131.213 210.655,15.44 "/>
<g>
	<rect x="85.75" y="35.319" style="fill:#64798A;" width="57.6" height="5.586"/>
	<rect x="85.75" y="51.303" style="fill:#64798A;" width="43.935" height="5.586"/>
	<rect x="87.808" y="72.705" style="fill:#64798A;" width="111.078" height="5.586"/>
	<rect x="87.808" y="91.869" style="fill:#64798A;" width="111.078" height="5.586"/>
	<rect x="107.981" y="75.516" style="fill:#64798A;" width="5.586" height="55.7"/>
	<rect x="166.328" y="75.516" style="fill:#64798A;" width="5.586" height="55.7"/>
</g>
<path style="fill:#E56353;" d="M183.376,67.076v-3.582c-4.485-0.457-8.51-2.24-12.072-5.347l3.582-4.269
	c2.747,2.388,5.575,3.81,8.49,4.269v-9.52c-3.698-0.883-6.405-2.045-8.123-3.484c-1.717-1.44-2.576-3.574-2.576-6.403
	c0-2.829,0.986-5.144,2.967-6.945c1.981-1.799,4.556-2.779,7.731-2.943v-2.454h3.139v2.502c3.598,0.264,7,1.49,10.207,3.682
	l-3.191,4.515c-2.16-1.537-4.497-2.486-7.016-2.847v9.225h0.148c3.762,0.885,6.525,2.079,8.29,3.582
	c1.769,1.506,2.652,3.69,2.652,6.551c0,2.863-1.014,5.195-3.043,6.992c-2.029,1.801-4.708,2.781-8.047,2.945v3.532H183.376z
	 M179.913,35.402c-0.835,0.735-1.25,1.651-1.25,2.747s0.327,1.963,0.982,2.6c0.651,0.639,1.897,1.252,3.73,1.841V34.1
	C181.902,34.232,180.748,34.665,179.913,35.402z M190.244,56.918c0.914-0.751,1.374-1.699,1.374-2.845
	c0-1.144-0.359-2.053-1.078-2.723c-0.723-0.671-2.065-1.3-4.025-1.889v8.831C188.084,58.13,189.326,57.671,190.244,56.918z"/>
<g>
	<polygon style="fill:#E1E6E9;" points="34.486,299.839 63.383,299.839 65.17,292.392 36.639,292.392 	"/>
	<polygon style="fill:#E1E6E9;" points="97.108,299.839 126.004,299.839 127.003,292.392 98.472,292.392 	"/>
	<polygon style="fill:#E1E6E9;" points="159.27,299.839 188.168,299.839 188.379,292.392 159.847,292.392 	"/>
	<polygon style="fill:#E1E6E9;" points="221.433,299.839 250.33,299.839 249.753,292.392 221.222,292.392 	"/>
	<polygon style="fill:#E1E6E9;" points="283.595,299.839 312.493,299.839 311.128,292.392 282.597,292.392 	"/>
</g>
<polygon style="fill:#3EA69B;" points="347.375,292.392 349.162,299.839 378.059,299.839 375.908,292.392 "/>
<g>
	<polygon style="fill:#E1E6E9;" points="48.75,250.492 75.22,250.492 76.321,245.906 50.075,245.906 	"/>
	<polygon style="fill:#E1E6E9;" points="106.151,250.492 132.621,250.492 133.237,245.906 106.991,245.906 	"/>
	<polygon style="fill:#E1E6E9;" points="163.093,250.492 189.564,250.492 189.694,245.906 163.449,245.906 	"/>
	<polygon style="fill:#E1E6E9;" points="220.035,250.492 246.508,250.492 246.151,245.906 219.906,245.906 	"/>
	<polygon style="fill:#E1E6E9;" points="276.979,250.492 303.449,250.492 302.609,245.906 276.364,245.906 	"/>
</g>
<polygon style="fill:#2D93BA;" points="332.82,245.906 333.922,250.492 360.391,250.492 359.066,245.906 "/>
<g>
	<polygon style="fill:#E1E6E9;" points="60.802,208.791 85.222,208.791 86.551,203.25 62.404,203.25 	"/>
	<polygon style="fill:#E1E6E9;" points="113.793,208.791 138.213,208.791 138.956,203.25 114.808,203.25 	"/>
	<polygon style="fill:#E1E6E9;" points="166.324,208.791 190.744,208.791 190.9,203.25 166.753,203.25 	"/>
</g>
<polygon style="fill:#3EA69B;" points="218.857,208.791 243.275,208.791 242.846,203.25 218.699,203.25 "/>
<polygon style="fill:#C97339;" points="271.388,208.791 295.808,208.791 294.791,203.25 270.644,203.25 "/>
<polygon style="fill:#D15241;" points="322.589,203.25 323.919,208.791 348.339,208.791 346.737,203.25 "/>
<g>
</g>
<g>
</g>
<g>
</g>
<g>
</g>
<g>
</g>
<g>
</g>
<g>
</g>
<g>
</g>
<g>
</g>
<g>
</g>
<g>
</g>
<g>
</g>
<g>
</g>
<g>
</g>
<g>
</g>
</svg>
