<?xml version="1.0" encoding="iso-8859-1"?>
<!-- Generator: Adobe Illustrator 19.0.0, SVG Export Plug-In . SVG Version: 6.00 Build 0)  -->
<svg version="1.1" id="Layer_1" xmlns="http://www.w3.org/2000/svg" xmlns:xlink="http://www.w3.org/1999/xlink" x="0px" y="0px"
	 viewBox="0 0 397.576 397.576" style="enable-background:new 0 0 397.576 397.576;" xml:space="preserve">
<circle style="fill:#FDBF5E;" cx="199.758" cy="199.725" r="197.818"/>
<path style="fill:#FFFFFF;" d="M252.897,156.412c0.646-11.766,0-22.885-3.103-34.004l31.547-21.657l-17.325-34.004l-35.879,12.994
	c-7.434-8.663-16.097-16.097-25.988-21.657l7.434-38.335L173.123,7.984l-16.679,34.715c-11.766-0.646-22.885,0-34.004,3.103
	l-21.592-31.547L66.844,31.58l12.994,35.879c-8.663,7.434-16.097,16.097-21.657,25.988l-38.335-6.853L8.081,123.055l34.586,16.679
	c-0.646,11.766,0,22.885,3.103,34.004l-31.547,21.657l17.325,34.586l35.879-12.994c7.434,8.663,16.097,16.097,25.988,21.657
	l-6.788,37.689l36.461,11.766l16.679-34.586c11.766,0.646,22.885,0,34.004-3.103l21.657,31.547l34.004-17.325l-12.994-35.879
	c8.663-7.434,16.097-16.097,21.657-25.988l37.689,6.788l11.766-36.461L252.897,156.412z"/>
<path style="fill:#193651;" d="M260.331,152.727c0.646-9.244-0.646-18.554-2.457-27.216l32.129-22.885l-22.238-43.895
	l-37.107,12.994c-6.206-6.788-12.994-12.994-21.01-17.907l6.788-38.917L169.438,0.032L152.76,35.911
	c-9.244-0.646-18.554,0.646-27.216,2.457L102.659,6.238L58.764,28.477l12.994,37.107c-6.788,6.141-12.994,12.929-17.907,21.01
	l-38.982-6.853L0,126.739l36.461,16.679c-0.646,9.244,0.646,18.554,2.457,27.216L6.853,193.519l22.238,43.895l37.107-12.994
	c6.206,6.788,12.994,12.994,21.01,17.907l-6.788,38.917l46.998,14.869l16.679-35.879c9.244,0.646,18.554-0.646,27.216-2.457
	l22.885,32.129l43.895-22.238l-12.994-37.107c6.788-6.206,12.994-12.994,17.907-21.01l38.917,6.788l14.869-46.998L260.331,152.727z
	 M272.032,202.764l-36.461-6.788c-6.788,12.347-15.451,22.238-25.988,30.901l12.347,35.232l-24.76,12.347l-21.01-30.319
	c-13.576,3.685-26.57,4.913-40.21,3.103l-16.097,33.358l-25.988-8.663l6.788-36.461c-11.766-6.206-21.657-14.869-30.901-25.988
	l-35.232,12.347l-12.347-24.76l30.319-21.01c-3.685-12.994-4.978-26.57-3.103-40.21l-33.228-15.903l8.016-25.988l36.461,6.206
	c7.434-12.347,16.097-22.885,25.988-30.901L74.279,34.036l24.76-12.347l21.01,30.319c12.994-3.685,26.57-4.913,40.21-3.103
	l16.097-33.358l26.57,8.663l-6.788,36.461c12.347,8.016,23.467,16.097,30.901,25.988l35.232-12.347l12.347,24.76l-30.319,21.01
	c3.685,12.994,4.913,25.988,3.103,40.21l33.358,16.097L272.032,202.764z"/>
<circle style="fill:#D3D7DA;" cx="147.782" cy="148.073" r="76.024"/>
<circle style="fill:#FFFFFF;" cx="148.428" cy="148.396" r="30.901"/>
<path style="fill:#F16051;" d="M336.356,391.984l20.428-7.434l-4.913-21.01c5.56-3.685,9.891-8.016,13.576-12.994l20.428,6.206
	l8.663-19.782l-18.036-11.184c1.228-6.206,1.228-12.347,0.646-19.135l18.554-9.891l-7.434-20.428l-21.01,4.913
	c-3.685-5.56-8.016-9.891-12.994-13.576l6.206-20.428l-19.135-9.244l-11.184,17.972c-6.206-1.228-12.347-1.228-19.135-0.646
	l-9.891-18.554l-20.428,7.434l4.913,21.01c-5.56,3.685-9.891,8.016-13.576,12.994L251.604,272l-9.244,19.782l17.907,11.119
	c-1.228,6.206-1.228,12.347-0.646,19.135l-18.489,9.956l7.434,20.428l21.01-4.978c3.685,5.56,8.016,9.891,12.994,13.576
	l-6.206,20.428l19.782,8.663l11.119-17.907c6.206,1.228,12.347,1.228,19.135,0.646L336.356,391.984z M302.352,320.226
	c-3.103-8.663,1.228-18.554,9.891-22.238c8.663-3.103,18.554,1.228,22.238,9.891c3.103,8.663-1.228,18.554-9.891,22.238
	C315.927,333.802,306.036,329.535,302.352,320.226z"/>
<path style="fill:#193651;" d="M148.428,123.636c13.576,0,24.76,11.119,24.76,24.76c0,13.64-11.119,24.76-24.76,24.76
	c-13.64,0-24.76-11.119-24.76-24.76C123.669,134.82,134.853,123.636,148.428,123.636 M148.428,111.289
	c-20.428,0-37.107,16.679-37.107,37.107s16.679,37.107,37.107,37.107s37.107-16.679,37.107-37.107
	C184.889,127.968,168.792,111.289,148.428,111.289L148.428,111.289z"/>
<g>
</g>
<g>
</g>
<g>
</g>
<g>
</g>
<g>
</g>
<g>
</g>
<g>
</g>
<g>
</g>
<g>
</g>
<g>
</g>
<g>
</g>
<g>
</g>
<g>
</g>
<g>
</g>
<g>
</g>
</svg>
